<?xml version="1.0" encoding="utf-8"?>
<!-- Generator: Adobe Illustrator 18.1.1, SVG Export Plug-In . SVG Version: 6.00 Build 0)  -->
<svg version="1.1" id="Layer_1" xmlns="http://www.w3.org/2000/svg" xmlns:xlink="http://www.w3.org/1999/xlink" x="0px" y="0px"
	 viewBox="0 0 841.9 595.3" enable-background="new 0 0 841.9 595.3" xml:space="preserve">
<g>
	<path fill="#4FAF4D" d="M246.9,345.5c0,9-11.5,18.7-25,18.7c-6.2,0-9.2-2.5-13.3-11.3c-10.4-22.5-14.6-30.4-22.2-32.9
		c-3,12-5.3,26-5.6,31.5c-1.3,1.8-4.1,3-8.2,3c-9.4,0-15.6-9.7-15.6-16.1c0-4.4,1.1-11,8.2-31.7c4.8-14.1,10.4-30.4,16.3-49.8
		c-13.6,1.6-26,13.6-31.5,24.6c-1,0.5-2.5,0.8-3.8,0.8c-4.4,0-7.1-3.8-7.1-9.7c0-16.8,28.1-41.6,63.1-41.6
		c28.3,0,42.4,13.8,42.4,33.2c0,16.3-9.7,30.7-28.3,48c3.4,3.3,10,11.8,15.8,23.3c2,3.9,3.6,4.9,6.1,4.9c1.5,0,4.8-0.5,6.7-1
		C246.2,341,246.9,343.5,246.9,345.5z M218.2,273c0-8.7-5.1-15.8-19.2-16.8c-0.3,10.4-3.3,27.1-8.4,48.1c1.6-0.3,3.5-0.5,5.4-0.5
		c3.1,0,6.2,0.5,8.5,1.1C215,290.9,218.2,282.9,218.2,273z"/>
	<path fill="#4FAF4D" d="M255.3,352.5c-9.4,0-16.3-7.7-16.3-22.7c0-24.6,20.4-50.4,36.8-50.4c2.3,0,3.5,0.3,4.3,1.2l0.5-9.5
		c1.3-1.5,3.5-2.1,5.8-2.1c11.2,0,17.3,7.6,17.3,13.3c0,2.1-0.5,6.2-1.8,10.8c-5.8,20.7-7.9,31.1-7.9,35.3c0,3.3,0.7,3.8,2,3.8
		c3.3,0,11.8-6.2,22.3-21c3.5,0,6.1,2.1,6.1,5.1c0,10.7-27.3,37.1-39.1,37.1c-7.2,0-11.8-3-11.8-13.5c0-1.8,0.2-3.9,0.5-6.4
		C268.6,348.4,261.1,352.5,255.3,352.5z M279.3,291.2c-8.2,5.3-16.1,18.9-16.1,31.5c0,6.1,2,6.7,4.3,6.7c2.3,0,4.6-1.6,6.6-4.1
		L279.3,291.2z"/>
	<path fill="#4FAF4D" d="M314,307c0-9.7,14.6-26.9,24.8-26.9c7.6,0,8.2,4.1,8.2,10.5c0,4.3-2.8,11.2-5.8,18.1
		c-4.6,11.3-6.7,16.6-6.7,20.4c0,1.8,0.8,2.5,2.3,2.5c2.3,0,9.7-5.3,20.7-20.9c3.1,0,6.4,2.6,6.4,5.9c0,10.4-26.1,38.1-41.2,38.1
		c-9.7,0-13-4.3-13-13.3c0-7.2,1.8-14,5.9-24.2C314.3,314.1,314,310.3,314,307z M344.9,236.7c6.6,0,14,7.2,14,12.3
		c0,3.9-3.1,10.4-11,20c-6.4,0-11-4.8-11-14.3C336.8,241.4,339.6,236.7,344.9,236.7z"/>
	<path fill="#4FAF4D" d="M362.8,267.7c3-22.2,14.6-35.5,27.6-35.5c7.1,0,11.5,3.3,11.5,11.7c0,7.2-3.3,15.3-15.6,38.4
		c-4.4,15.9-12.2,44.5-12.2,48.6c0,1.8,0.8,2.5,2.3,2.5c5.1,0,14.8-9.4,23.3-22.7c3.1,0,6.2,2.3,6.2,5.6c0,12.5-26.6,38.3-43.2,38.3
		c-9.5,0-13-4.1-13-12.7c0-11,5.3-30.1,6.6-37C358.3,294.4,361.3,278.9,362.8,267.7z"/>
	<path fill="#4FAF4D" d="M507.6,242.9c0,5.6-3.1,12.8-15,22.5c-4.4,15.9-15.4,61.5-15.4,65.6c0,1.8,0.8,2.5,2.3,2.5
		c5.1,0,14.8-9.4,23.3-22.7c3.1,0,6.2,2.3,6.2,5.6c0,12.5-26.6,38.3-43.2,38.3c-9.5,0-13-4.1-13-12.7c0-11,5.1-30.1,6.6-37
		c2.5-11.7,4.8-24.3,7.2-37.3c0.2-1,0.3-2.1,0.7-3.3c-8.5-1.3-15.9-2-18.9-2c-6.1,0-9.7,4.1-10,12c9.5,0,15,2,15,6.9
		c0,6.2-6.7,15.6-13,15.6c-3.5,0-6.9-2.5-9.7-6.1c1,2.6,2.3,5.4,3.8,8.4c6.9,14,9.9,23.7,9.9,30.7c0,17.1-12.8,26-29.1,26
		c-12.8,0-24.8-8.7-24.8-25c0-9.7,2.6-25.6,10.7-25.6c5.8,0,10.4,7.4,10.4,11.5c0,3.5-1.5,5.9-4.3,9c1.3,7.2,6.9,12.2,10.7,12.2
		c1.6,0,3.5-1,3.5-3.8c0-8.4-9.9-31.5-9.9-41.7c0-6.9,3.6-12.8,12.5-16.6c-0.3-1.6-0.5-3.4-0.5-5.1c0-16.3,10.2-27.8,27.8-27.8
		c5.4,0,9.7,1.2,20.7,5.6c4.4-10.7,10.8-18.1,19.6-18.1C498.6,230.6,507.6,236.4,507.6,242.9z"/>
	<path fill="#4FAF4D" d="M558,298.5c0,7.9-1.6,14.3-5.1,23.3c0.5,0.5,1.6,1.1,3.3,1.1c4.8,0,9.5-3.8,15-12.5c3,0,6.4,2.5,6.4,5.9
		c0,6.9-11,22.3-25,22.3c-3,0-4.8-0.5-6.6-1.6c-7.9,10.7-16.6,16.6-28.1,16.6c-11.7,0-20.9-7.7-20.9-23.8
		c0-27.3,18.1-52.6,35.5-52.6c4.3,0,9.5,1.8,9.7,7.2c1.6-1.6,3.1-2.3,5.8-2.3C554.7,282.2,558,291.1,558,298.5z M526.3,334.1
		c3.9,0,7.9-3.8,10.8-11.2c-1.3-5.1-1.8-9.9-1.8-14.3c0-5.6,1.2-14.3,3.6-19.1c-10.2,4.8-18.6,20.7-18.6,34.2
		C520.3,331.8,523.3,334.1,526.3,334.1z"/>
	<path fill="#4FAF4D" d="M585.5,354c-12.5,0-21.7-6.7-21.7-23.2c0-8.2,3.3-18.9,9.9-28.3c-4.1-2-4.8-5.6-4.8-8.5
		c0.2-8.2,10.5-17.1,23.5-17.1c6.4,0,12,2.6,12,9.2c0,0.7,0,1.3-0.2,2c-10.5,9.9-16.9,24.8-16.9,36.8c0,6.4,1.6,8.7,5.3,8.7
		c6.7,0,17.4-18.1,17.4-41.4c0-3-0.5-9.2-1-12.7c1.5-2,4.4-3.5,8.4-3.5c10.2,0,13.8,7.4,13.8,15.6C631.2,327.1,606.9,354,585.5,354z
		"/>
	<path fill="#4FAF4D" d="M625.1,326.2c0-24.8,20.2-50.1,36.1-50.1c11.3,0,17.6,5.4,17.6,16.9c0,13.8-8.1,24.5-30.6,29.6
		c0,7.4,1.5,11.5,7.9,11.5c11.2,0,25.6-9.5,35-23.8c3.9,0.2,6.2,2.8,6.2,5.4c0,12.2-27.4,38.3-48.8,38.3
		C632.5,354,625.1,344,625.1,326.2z M657.1,293.4c-2.3,0-6.7,5.6-7.9,17.1c9.2-1.6,11.2-6.7,11.2-11.7
		C660.4,295.3,659.1,293.4,657.1,293.4z"/>
</g>
</svg>
